<?xml version="1.0" encoding="UTF-8" standalone="no"?>
<svg
   version="1.1"
   width="1082"
   height="708"
   id="svg5"
   sodipodi:docname="未命名.svg"
   inkscape:version="1.4.2 (ebf0e940, 2025-05-08)"
   xmlns:inkscape="http://www.inkscape.org/namespaces/inkscape"
   xmlns:sodipodi="http://sodipodi.sourceforge.net/DTD/sodipodi-0.dtd"
   xmlns="http://www.w3.org/2000/svg"
   xmlns:svg="http://www.w3.org/2000/svg">
  <sodipodi:namedview
     id="namedview5"
     pagecolor="#ffffff"
     bordercolor="#000000"
     borderopacity="0.25"
     inkscape:showpageshadow="2"
     inkscape:pageopacity="0.0"
     inkscape:pagecheckerboard="0"
     inkscape:deskcolor="#d1d1d1"
     inkscape:zoom="0.7"
     inkscape:cx="510.71429"
     inkscape:cy="421.42857"
     inkscape:window-width="1472"
     inkscape:window-height="829"
     inkscape:window-x="0"
     inkscape:window-y="34"
     inkscape:window-maximized="0"
     inkscape:current-layer="svg5"
     showguides="true" />
  <defs
     id="defs1">
    <linearGradient
       id="swatch17"
       inkscape:swatch="solid">
      <stop
         style="stop-color:#000000;stop-opacity:1;"
         offset="0"
         id="stop17" />
    </linearGradient>
    <inkscape:perspective
       sodipodi:type="inkscape:persp3d"
       inkscape:vp_x="0 : 354 : 1"
       inkscape:vp_y="0 : 1000 : 0"
       inkscape:vp_z="1082 : 354 : 1"
       inkscape:persp3d-origin="541 : 236 : 1"
       id="perspective17" />
    <clipPath
       id="xTeGoHfAUwTa">
      <path
         fill="none"
         stroke="none"
         d=" M 0 0 L 1082 0 L 1082 708 L 0 708 L 0 0 Z"
         id="path1" />
    </clipPath>
  </defs>
  <g
     id="g24"
     style="display:inline;opacity:1;fill:none;fill-opacity:1"
     transform="matrix(1.3437343,0,0,1.3437343,-451.13509,-146.55152)">
    <g
       id="g1"
       style="fill:none;fill-opacity:1">
      <g
         clip-path="url(#xTeGoHfAUwTa)"
         id="g5"
         style="fill:none;fill-opacity:1;fill-rule:evenodd;paint-order:stroke fill markers">
        <g
           id="g4"
           style="fill:none;fill-opacity:1;fill-rule:evenodd;paint-order:stroke fill markers">
          <path
             fill="none"
             stroke="#000000"
             paint-order="fill stroke markers"
             d="m 336.98236,462.83647 1.44374,0.82961 1.44712,0.82369 1.45048,0.81777 1.45381,0.81184 1.45711,0.80587 1.46041,0.79991 1.46366,0.79393 1.4669,0.78793 1.4701,0.78193 1.4733,0.77591 1.47645,0.76987 1.4796,0.76383 1.4827,0.75777 1.4858,0.7517 1.48885,0.74561 1.49189,0.73952 1.49491,0.73341 1.49789,0.72729 1.50086,0.72115 1.50379,0.71501 1.5067,0.70885 1.5096,0.70268 1.51245,0.6965 1.51529,0.69031 1.5181,0.6841 1.52089,0.67789 1.52365,0.67166 1.52638,0.66543 1.52909,0.65917 1.53177,0.65291 1.53444,0.64664 1.53706,0.64036 1.53967,0.63407 1.54226,0.62776 1.5448,0.62145 1.54734,0.61513 1.54984,0.60879 1.55232,0.60244 1.55477,0.59609 1.55719,0.58973 1.55959,0.58335 1.56197,0.57696 1.56431,0.57058 1.56664,0.56416 1.56893,0.55776 1.57119,0.55133 1.57344,0.5449 1.57566,0.53846 1.57785,0.53201 1.58,0.52555 1.58215,0.51908 1.58425,0.51261 1.58634,0.50612 1.5884,0.49963 1.59042,0.49313 1.59243,0.48662 1.59441,0.4801 1.59636,0.47357 1.59828,0.46704 1.60018,0.46049 1.60205,0.45395 1.60389,0.44739 1.60571,0.44083 1.6075,0.43425 1.60926,0.42768 1.611,0.42109 1.6127,0.41449 1.61439,0.40789 1.61605,0.40129 1.61767,0.39467 1.61927,0.38806 1.62085,0.38142 1.62239,0.37479 1.62391,0.36816 1.62541,0.3615 1.62687,0.35486 1.62831,0.34819 1.62972,0.34154 1.6311,0.33486 1.63246,0.32819 1.63379,0.32151 1.63509,0.31482 1.63636,0.30813 1.63761,0.30144 1.63883,0.29473 1.64002,0.28803 1.64119,0.28131 1.64232,0.2746 1.64343,0.26788 1.64452,0.26116 1.64556,0.25442 1.6466,0.2477 1.6476,0.24095 1.64856,0.23421 1.64951,0.22747 1.65043,0.22072 1.65132,0.21397 1.65218,0.2072 1.65301,0.20045 1.65382,0.19369 1.6546,0.18691 1.65534,0.18015 1.65607,0.17338 1.65677,0.1666 1.65743,0.15982 1.65808,0.15304 1.65868,0.14625 1.65927,0.13947 1.65983,0.13268 1.66036,0.12589 1.66085,0.1191 1.66133,0.1123 1.66178,0.10551 1.66219,0.0987 1.66258,0.0919 1.66295,0.0851 1.66328,0.0783 1.66358,0.0715 1.66387,0.0647 1.66411,0.0579 1.66434,0.0511 1.66453,0.0443 1.6647,0.0375 1.66484,0.0307 1.66495,0.0238 1.66504,0.017 1.66509,0.0102 1.66512,0.003 1.66512,-0.003 1.66509,-0.0102 1.66503,-0.017 1.66495,-0.0238 1.66484,-0.0307 1.6647,-0.0375 1.66453,-0.0443 1.66434,-0.0511 1.66412,-0.0579 1.66386,-0.0647 1.66359,-0.0715 1.66327,-0.0783 1.66295,-0.0851 1.66258,-0.0919 1.6622,-0.0987 1.66177,-0.10551 1.66133,-0.1123 1.66086,-0.1191 1.66035,-0.12589 1.65983,-0.13268 1.65927,-0.13947 1.65869,-0.14625 1.65807,-0.15304 1.65743,-0.15982 1.65677,-0.1666 1.65607,-0.17338 1.65535,-0.18015 1.6546,-0.18691 1.65381,-0.19369 1.65302,-0.20045 1.65218,-0.2072 1.65131,-0.21397 1.65043,-0.22072 1.64951,-0.22747 1.64857,-0.23421 1.64759,-0.24095 1.6466,-0.2477 1.64557,-0.25442 1.64451,-0.26116 1.64344,-0.26788 1.64232,-0.2746 1.64118,-0.28131 1.64003,-0.28803 1.63883,-0.29473 1.63761,-0.30144 1.63636,-0.30813 1.63509,-0.31482 1.63378,-0.32151 1.63246,-0.32819 1.63111,-0.33486 1.62972,-0.34154 1.6283,-0.34819 1.62687,-0.35486 1.62541,-0.3615 1.62391,-0.36816 1.6224,-0.37479 1.62084,-0.38142 1.61928,-0.38806 1.61767,-0.39467 1.61604,-0.40129 1.61439,-0.40789 1.61271,-0.41449 1.611,-0.42109 1.60926,-0.42768 1.6075,-0.43425 1.60571,-0.44083 1.60389,-0.44739 1.60205,-0.45395 1.60018,-0.46049 1.59828,-0.46704 1.59635,-0.47357 1.59441,-0.4801 1.59243,-0.48662 1.59043,-0.49313 1.58839,-0.49963 1.58634,-0.50612 1.58426,-0.51261 1.58214,-0.51908 1.58001,-0.52555 1.57784,-0.53201 1.57566,-0.53846 1.57344,-0.5449 1.5712,-0.55133 1.56893,-0.55776 1.56663,-0.56416 1.56431,-0.57058 1.56197,-0.57696 1.55959,-0.58335 1.5572,-0.58973 1.55477,-0.59609 1.55232,-0.60244 1.54984,-0.60879 1.54733,-0.61513 1.54481,-0.62145 1.54225,-0.62776 1.53967,-0.63407 1.53707,-0.64036 1.53443,-0.64664 1.53178,-0.65291 1.52909,-0.65917 1.52638,-0.66543 1.52365,-0.67166 1.52088,-0.67789 1.5181,-0.6841 1.51529,-0.69031 1.51246,-0.6965 1.50959,-0.70268 1.50671,-0.70885 1.50379,-0.71501 1.50085,-0.72115 1.4979,-0.72729 1.4949,-0.73341 1.49189,-0.73952 1.48886,-0.74561 1.48579,-0.7517 1.48271,-0.75777 1.47959,-0.76383 1.47646,-0.76987 1.47329,-0.77591 1.47011,-0.78193 1.4669,-0.78793 1.46366,-0.79393 1.4604,-0.79991 1.45712,-0.80587 1.45381,-0.81184 1.45047,-0.81777 1.44712,-0.82369 1.44374,-0.82961"
             stroke-opacity="0.698039"
             stroke-linecap="round"
             stroke-linejoin="round"
             stroke-miterlimit="10"
             stroke-width="2.5"
             id="path2"
             style="display:none;fill:none;fill-opacity:1;fill-rule:evenodd;paint-order:stroke fill markers"
             sodipodi:insensitive="true" />
          <path
             fill="none"
             stroke="#000000"
             paint-order="fill stroke markers"
             d="m 540.51196,110.31287 -1.44033,0.83551 -1.43691,0.84139 -1.43344,0.84727 -1.42997,0.85312 -1.42647,0.85896 -1.42295,0.86479 -1.41939,0.87061 -1.41582,0.8764 -1.41222,0.88219 -1.40861,0.88795 -1.40495,0.89372 -1.4013,0.89945 -1.3976,0.90517 -1.39388,0.91089 -1.39015,0.91658 -1.38639,0.92225 -1.3826,0.92793 -1.37879,0.93357 -1.37497,0.9392 -1.37111,0.94482 -1.36724,0.95042 -1.36333,0.956 -1.35942,0.96157 -1.35547,0.96713 -1.3515,0.97266 -1.34751,0.97818 -1.3435,0.98369 -1.33946,0.98917 -1.33541,0.99465 -1.33133,1.0001 -1.32722,1.00554 -1.3231,1.01095 -1.31896,1.01636 -1.31478,1.02175 -1.31059,1.02712 -1.30639,1.03247 -1.30214,1.03781 -1.2979,1.04312 -1.29361,1.04843 -1.28931,1.0537 -1.285,1.05897 -1.28065,1.06422 -1.27628,1.06945 -1.2719,1.07467 -1.2675,1.07985 -1.26307,1.08503 -1.25861,1.09019 -1.25415,1.09533 -1.24966,1.10045 -1.24514,1.10555 -1.24061,1.11063 -1.23606,1.11571 -1.23149,1.12074 -1.22688,1.12578 -1.22228,1.13079 -1.21764,1.13577 -1.21298,1.14075 -1.2083,1.1457 -1.20361,1.15063 -1.19889,1.15555 -1.19416,1.16044 -1.1894,1.16532 -1.18462,1.17017 -1.17982,1.17501 -1.17501,1.17982 -1.17017,1.18462 -1.16532,1.1894 -1.16044,1.19416 -1.15554,1.19889 -1.15064,1.20361 -1.1457,1.2083 -1.14075,1.21298 -1.13577,1.21764 -1.13079,1.22227 -1.12577,1.22689 -1.12075,1.23149 -1.1157,1.23605 -1.11064,1.24062 -1.10555,1.24514 -1.10045,1.24966 -1.09533,1.25414 -1.09019,1.25862 -1.08503,1.26307 -1.07985,1.26749 -1.07466,1.2719 -1.06945,1.27629 -1.06422,1.28065 -1.05898,1.28499 -1.0537,1.28932 -1.04843,1.29361 -1.04312,1.29789 -1.03781,1.30215 -1.03247,1.30638 -1.02711,1.3106 -1.02175,1.31478 -1.01636,1.31896 -1.01096,1.3231 -1.00554,1.32722 -1.0001,1.33133 -0.99464,1.3354 -0.98918,1.33947 -0.98368,1.3435 -0.97819,1.34751 -0.97266,1.3515 -0.96713,1.35547 -0.96157,1.35941 -0.956,1.36334 -0.95042,1.36724 -0.94482,1.37111 -0.9392,1.37496 -0.93357,1.3788 -0.92792,1.3826 -0.92226,1.38639 -0.91658,1.39015 -0.91089,1.39388 -0.90517,1.3976 -0.89945,1.40129 -0.89371,1.40496 -0.88796,1.40861 -0.88219,1.41222 -0.8764,1.41582 -0.87061,1.41939 -0.86479,1.42295 -0.85896,1.42646 -0.85312,1.42997 -0.84726,1.43345 -0.8414,1.4369 -0.83551,1.44034 -0.82961,1.44373 -0.82369,1.44712 -0.81777,1.45048 -0.81183,1.45381 -0.80588,1.45711 -0.79991,1.46041 -0.79393,1.46366 -0.78793,1.4669 -0.78193,1.4701 -0.77591,1.4733 -0.76987,1.47646 -0.76383,1.47959 -0.75777,1.4827 -0.7517,1.4858 -0.74561,1.48885 -0.73952,1.49189 -0.73341,1.49491 -0.72728,1.49789 -0.72116,1.50086 -0.71501,1.50379 -0.70885,1.5067 -0.70268,1.5096 -0.6965,1.51245 -0.69031,1.51529 -0.6841,1.5181 -0.67789,1.52089 -0.67166,1.52365 -0.66542,1.52638 -0.65918,1.52909 -0.65291,1.53177 -0.64664,1.53444 -0.64036,1.53706 -0.63407,1.53967 -0.62776,1.54226 -0.62145,1.5448 -0.61512,1.54734 -0.60879,1.54984 -0.60245,1.55232 -0.59609,1.55477 -0.58972,1.55719 -0.58335,1.55959 -0.57697,1.56197 -0.57057,1.56431 -0.56417,1.56664 -0.55776,1.56893 -0.55133,1.5712 -0.5449,1.57344 -0.53846,1.57565 -0.53201,1.57785 -0.52555,1.58 -0.51908,1.58215 -0.51261,1.58425 -0.50612,1.58634 -0.49963,1.5884 -0.49313,1.59042 -0.48661,1.59243 -0.4801,1.59441 -0.47358,1.59636 -0.46704,1.59828 -0.46049,1.60018 -0.45395,1.60205 -0.44739,1.60389 -0.44083,1.60571 -0.43425,1.6075 -0.42767,1.60926 -0.42109,1.611 -0.4145,1.61271 -0.40789,1.61438 -0.40129,1.61605 -0.39467,1.61767 -0.38805,1.61927 -0.38143,1.62085 -0.37479,1.62239 -0.36815,1.62392 -0.36151,1.6254 -0.35486,1.62687 -0.34819,1.62831 -0.34154,1.62972 -0.33486,1.6311 -0.32819,1.63246 -0.32151,1.63379 -0.31482,1.63509 -0.30813,1.63636 -0.30143,1.63761 -0.29474,1.63883 -0.28802,1.64002 -0.28132,1.64119 -0.2746,1.64232 -0.26788,1.64343 -0.26116,1.64452 -0.25442,1.64556 -0.24769,1.6466 -0.24096,1.6476 -0.23421,1.64856 -0.22747,1.64951 -0.22072,1.65043 -0.21396,1.65132 -0.20721,1.65218 -0.20045,1.65301 -0.19368,1.65382 -0.18692,1.6546 -0.18015,1.65534 -0.17338,1.65607 -0.16659,1.65677 -0.15983,1.65743 -0.15303,1.65808 -0.14626,1.65868 -0.13947,1.65927 -0.13268,1.65983 -0.12589,1.66036 -0.1191,1.66085 -0.1123,1.66133 -0.10551,1.66178 -0.0987,1.66219 -0.0919,1.66259 -0.0851,1.66294 -0.0783,1.66328 -0.0715,1.66359 -0.0647,1.66386 -0.0579,1.66411 -0.0511,1.66434 -0.0443,1.66454 -0.0375,1.6647 -0.0306,1.66483 -0.0238,1.66496 -0.017,1.66503 -0.0102,1.66509 -0.003,1.66512"
             stroke-opacity="0.698039"
             stroke-linecap="round"
             stroke-linejoin="round"
             stroke-miterlimit="10"
             stroke-width="2.5"
             id="path3"
             style="display:none;fill:none;fill-opacity:1;fill-rule:evenodd;paint-order:stroke fill markers"
             sodipodi:insensitive="true" />
          <path
             fill="none"
             stroke="#000000"
             paint-order="fill stroke markers"
             d="m 744.04155,462.83647 -0.003,-1.66512 -0.0102,-1.66509 -0.017,-1.66503 -0.0238,-1.66496 -0.0307,-1.66483 -0.0375,-1.6647 -0.0443,-1.66454 -0.0511,-1.66434 -0.0579,-1.66411 -0.0647,-1.66386 -0.0715,-1.66359 -0.0783,-1.66328 -0.0851,-1.66294 -0.0919,-1.66259 -0.0987,-1.66219 -0.1055,-1.66178 -0.11231,-1.66133 -0.11909,-1.66085 -0.12589,-1.66036 -0.13269,-1.65983 -0.13946,-1.65927 -0.14626,-1.65868 -0.15304,-1.65808 -0.15982,-1.65743 -0.1666,-1.65677 -0.17338,-1.65607 -0.18014,-1.65534 -0.18692,-1.6546 -0.19369,-1.65382 -0.20044,-1.65301 -0.20721,-1.65218 -0.21397,-1.65132 -0.22072,-1.65043 -0.22746,-1.64951 -0.23422,-1.64856 -0.24095,-1.6476 -0.24769,-1.6466 -0.25443,-1.64556 -0.26115,-1.64452 -0.26788,-1.64343 -0.2746,-1.64232 -0.28132,-1.64119 -0.28803,-1.64002 -0.29473,-1.63883 -0.30144,-1.63761 -0.30813,-1.63636 -0.31482,-1.63509 -0.32151,-1.63379 -0.32819,-1.63246 -0.33486,-1.6311 -0.34153,-1.62972 -0.3482,-1.62831 -0.35485,-1.62687 -0.36151,-1.6254 -0.36815,-1.62392 -0.3748,-1.62239 -0.38142,-1.62085 -0.38805,-1.61927 -0.39468,-1.61767 -0.40128,-1.61605 -0.4079,-1.61438 -0.41449,-1.61271 -0.42109,-1.611 -0.42768,-1.60926 -0.43425,-1.6075 -0.44082,-1.60571 -0.4474,-1.60389 -0.45394,-1.60205 -0.4605,-1.60018 -0.46704,-1.59828 -0.47357,-1.59636 -0.4801,-1.59441 -0.48662,-1.59243 -0.49313,-1.59042 -0.49963,-1.5884 -0.50612,-1.58634 -0.5126,-1.58425 -0.51909,-1.58215 -0.52555,-1.58 -0.53201,-1.57785 -0.53846,-1.57565 -0.5449,-1.57344 -0.55133,-1.5712 -0.55776,-1.56893 -0.56416,-1.56664 -0.57057,-1.56431 -0.57697,-1.56197 -0.58335,-1.55959 -0.58973,-1.55719 -0.59609,-1.55477 -0.60244,-1.55232 -0.60879,-1.54984 -0.61513,-1.54734 -0.62145,-1.5448 -0.62776,-1.54226 -0.63407,-1.53967 -0.64035,-1.53706 -0.64665,-1.53444 -0.65291,-1.53177 -0.65917,-1.52909 -0.66543,-1.52638 -0.67166,-1.52365 -0.67788,-1.52089 -0.68411,-1.5181 -0.69031,-1.51529 -0.6965,-1.51245 -0.70268,-1.5096 -0.70885,-1.5067 -0.71501,-1.50379 -0.72115,-1.50086 -0.72729,-1.49789 -0.73341,-1.49491 -0.73951,-1.49189 -0.74562,-1.48885 -0.7517,-1.4858 -0.75777,-1.4827 -0.76382,-1.47959 -0.76988,-1.47646 -0.77591,-1.4733 -0.78192,-1.4701 -0.78794,-1.4669 -0.79393,-1.46366 -0.79991,-1.46041 -0.80587,-1.45711 -0.81183,-1.45381 -0.81777,-1.45048 -0.8237,-1.44712 -0.82961,-1.44373 -0.83551,-1.44034 -0.84139,-1.4369 -0.84727,-1.43345 -0.85312,-1.42997 -0.85896,-1.42646 -0.86479,-1.42295 -0.8706,-1.41939 -0.87641,-1.41582 -0.88218,-1.41222 -0.88796,-1.40861 -0.89371,-1.40496 -0.89945,-1.40129 -0.90518,-1.3976 -0.91088,-1.39388 -0.91658,-1.39015 -0.92226,-1.38639 -0.92792,-1.3826 -0.93357,-1.3788 -0.93921,-1.37496 -0.94481,-1.37111 -0.95042,-1.36724 -0.95601,-1.36334 -0.96157,-1.35941 -0.96713,-1.35547 -0.97266,-1.3515 -0.97818,-1.34751 -0.98369,-1.3435 -0.98917,-1.33947 -0.99465,-1.3354 -1.0001,-1.33133 -1.00553,-1.32722 -1.01096,-1.3231 -1.01636,-1.31896 -1.02175,-1.31478 -1.02712,-1.3106 -1.03247,-1.30638 -1.03781,-1.30215 -1.04312,-1.29789 -1.04842,-1.29361 -1.05371,-1.28932 -1.05897,-1.28499 -1.06422,-1.28065 -1.06945,-1.27629 -1.07466,-1.2719 -1.07986,-1.26749 -1.08503,-1.26307 -1.09019,-1.25862 -1.09533,-1.25414 -1.10044,-1.24966 -1.10556,-1.24514 -1.11063,-1.24062 -1.1157,-1.23605 -1.12075,-1.23149 -1.12578,-1.22689 -1.13078,-1.22227 -1.13578,-1.21764 -1.14075,-1.21298 -1.1457,-1.2083 -1.15063,-1.20361 -1.15555,-1.19889 -1.16044,-1.19416 -1.16532,-1.1894 -1.17017,-1.18462 -1.17501,-1.17982 -1.17982,-1.17501 -1.18462,-1.17017 -1.1894,-1.16532 -1.19415,-1.16044 -1.19889,-1.15555 -1.20361,-1.15063 -1.20831,-1.1457 -1.21298,-1.14075 -1.21764,-1.13577 -1.22227,-1.13079 -1.22689,-1.12578 -1.23148,-1.12074 -1.23606,-1.11571 -1.24061,-1.11063 -1.24515,-1.10555 -1.24965,-1.10045 -1.25415,-1.09533 -1.25862,-1.09019 -1.26307,-1.08503 -1.26749,-1.07985 -1.2719,-1.07467 -1.27629,-1.06945 -1.28065,-1.06422 -1.28499,-1.05897 -1.28932,-1.0537 -1.29361,-1.04843 -1.29789,-1.04312 -1.30215,-1.03781 -1.30638,-1.03247 -1.3106,-1.02712 -1.31478,-1.02175 -1.31895,-1.01636 -1.3231,-1.01095 -1.32723,-1.00554 -1.33133,-1.0001 -1.3354,-0.99465 -1.33947,-0.98917 -1.34349,-0.98369 -1.34752,-0.97818 -1.3515,-0.97266 -1.35547,-0.96713 -1.35941,-0.96157 -1.36334,-0.956 -1.36723,-0.95042 -1.37112,-0.94482 -1.37496,-0.9392 -1.3788,-0.93357 -1.3826,-0.92793 -1.38639,-0.92225 -1.39014,-0.91658 -1.39389,-0.91089 -1.3976,-0.90517 -1.40129,-0.89945 -1.40496,-0.89372 -1.4086,-0.88795 -1.41223,-0.88219 -1.41582,-0.8764 -1.41939,-0.87061 -1.42294,-0.86479 -1.42647,-0.85896 -1.42997,-0.85312 -1.43345,-0.84727 -1.4369,-0.84139 -1.44033,-0.83551"
             stroke-opacity="0.698039"
             stroke-linecap="round"
             stroke-linejoin="round"
             stroke-miterlimit="10"
             stroke-width="2.5"
             id="path4"
             style="display:none;fill:none;fill-opacity:1;fill-rule:evenodd;paint-order:stroke fill markers"
             sodipodi:insensitive="true" />
        </g>
      </g>
    </g>
  </g>
  <path
     style="fill:none;fill-opacity:1;fill-rule:evenodd;stroke-width:3.19408;paint-order:fill markers stroke"
     d="M 237.7016,543.31253 C 172.46904,539.62773 97.737122,519.76487 38.385432,490.33659 L 8.0893822,475.31494 8.4855722,438.64077 C 10.136442,285.82367 107.31776,116.75565 246.83114,23.986837 l 28.2639,-18.7939503 17.97745,11.4797103 c 62.21657,39.72907 127.97777,105.510113 167.46,167.510413 49.26924,77.36919 84.72825,192.73183 84.88713,276.17244 l 0.0262,13.74203 -35.87691,17.21639 C 423.6237,532.55673 337.82003,548.96795 237.7016,543.31253 Z"
     id="path5" />
  <path
     style="fill:none;fill-opacity:1;fill-rule:evenodd;stroke-width:3.19408;paint-order:fill markers stroke"
     d="M 237.7016,543.31253 C 172.46904,539.62773 97.737122,519.76487 38.385432,490.33659 L 8.0893822,475.31494 8.4855722,438.64077 C 10.136442,285.82367 107.31776,116.75565 246.83114,23.986837 l 28.2639,-18.7939503 17.97745,11.4797103 c 62.21657,39.72907 127.97777,105.510113 167.46,167.510413 49.26924,77.36919 84.72825,192.73183 84.88713,276.17244 l 0.0262,13.74203 -35.87691,17.21639 C 423.6237,532.55673 337.82003,548.96795 237.7016,543.31253 Z"
     id="path6" />
  <path
     style="fill:none;fill-opacity:1;fill-rule:evenodd;stroke-width:3.19408;paint-order:fill markers stroke"
     d="M 237.7016,543.31253 C 172.46904,539.62773 97.737122,519.76487 38.385432,490.33659 L 8.0893822,475.31494 8.4855722,438.64077 C 10.136442,285.82367 107.31776,116.75565 246.83114,23.986837 l 28.2639,-18.7939503 17.97745,11.4797103 c 62.21657,39.72907 127.97777,105.510113 167.46,167.510413 49.26924,77.36919 84.72825,192.73183 84.88713,276.17244 l 0.0262,13.74203 -35.87691,17.21639 C 423.6237,532.55673 337.82003,548.96795 237.7016,543.31253 Z"
     id="path7" />
  <path
     style="fill:none;fill-opacity:1;fill-rule:evenodd;stroke-width:1.82077;paint-order:fill markers stroke"
     d="M 246.03521,545.12447 C 169.22473,540.7196 99.621672,522.01761 29.726932,487.00358 l -25.4743798,-12.76149 0.007,-11.34985 c 0.004,-6.24238 0.84941,-20.75752 1.87997,-32.25584 C 20.315872,272.46748 98.499812,132.32042 225.19836,37.966817 c 11.41218,-8.49874 27.31375,-19.43948 35.33686,-24.31275 l 14.58741,-8.8604903 14.58742,8.8604903 c 49.81509,30.25797 103.79849,79.14398 142.27742,128.842853 67.87312,87.66403 108.07745,196.43207 113.36569,306.69736 l 1.17836,24.57026 -14.35865,7.56624 c -89.71779,47.2765 -188.83223,69.37389 -286.13687,63.79369 z"
     id="path8" />
  <path
     style="fill:#000000;fill-opacity:1;fill-rule:evenodd;stroke-width:1.82077;paint-order:fill markers stroke"
     d="M 246.03521,545.12447 C 169.22473,540.7196 99.621672,522.01761 29.726932,487.00358 l -25.4743798,-12.76149 0.007,-11.34985 c 0.004,-6.24238 0.84941,-20.75752 1.87997,-32.25584 C 20.315872,272.46748 98.499812,132.32042 225.19836,37.966817 c 11.41218,-8.49874 27.31375,-19.43948 35.33686,-24.31275 l 14.58741,-8.8604903 14.58742,8.8604903 c 49.81509,30.25797 103.79849,79.14398 142.27742,128.842853 67.87312,87.66403 108.07745,196.43207 113.36569,306.69736 l 1.17836,24.57026 -14.35865,7.56624 c -89.71779,47.2765 -188.83223,69.37389 -286.13687,63.79369 z"
     id="path9" />
</svg>
